<svg id="vector" xmlns="http://www.w3.org/2000/svg" width="25" height="24" viewBox="0 0 25 24"><path fill="#00000000" d="M10,13.75C10,14.72 10.75,15.5 11.67,15.5H13.55C14.35,15.5 15,14.82 15,13.97C15,13.06 14.6,12.73 14.01,12.52L11,11.47C10.41,11.26 10.01,10.94 10.01,10.02C10.01,9.18 10.66,8.49 11.46,8.49H13.34C14.26,8.49 15.01,9.27 15.01,10.24" stroke-linejoin="round" stroke-width="1.5" stroke="#ffffff" stroke-linecap="round" id="path_0"/><path fill="#00000000" d="M12.5,7.5V16.5" stroke-linejoin="round" stroke-width="1.5" stroke="#ffffff" stroke-linecap="round" id="path_1"/><path fill="#00000000" d="M22.5,12C22.5,17.52 18.02,22 12.5,22C6.98,22 2.5,17.52 2.5,12C2.5,6.48 6.98,2 12.5,2" stroke-linejoin="round" stroke-width="1.5" stroke="#ffffff" stroke-linecap="round" id="path_2"/><path fill="#00000000" d="M22.5,6V2H18.5" stroke-linejoin="round" stroke-width="1.5" stroke="#ffffff" stroke-linecap="round" id="path_3"/><path fill="#00000000" d="M17.5,7L22.5,2" stroke-linejoin="round" stroke-width="1.5" stroke="#ffffff" stroke-linecap="round" id="path_4"/></svg>